<?xml version="1.0" encoding="UTF-8" standalone="no"?>
<svg width="195px" height="119px" viewBox="0 0 195 119" version="1.1" xmlns="http://www.w3.org/2000/svg" xmlns:xlink="http://www.w3.org/1999/xlink" xmlns:sketch="http://www.bohemiancoding.com/sketch/ns">
    <!-- Generator: Sketch 3.1.1 (8761) - http://www.bohemiancoding.com/sketch -->
    <title>Imported Layers 2</title>
    <desc>Created with Sketch.</desc>
    <defs></defs>
    <g id="Page-1" stroke="none" stroke-width="1" fill="none" fill-rule="evenodd" sketch:type="MSPage">
        <g id="Desktop" sketch:type="MSArtboardGroup" transform="translate(-503.000000, -51.000000)" fill="#1A1918">
            <g id="Imported-Layers-2" sketch:type="MSLayerGroup" transform="translate(503.000000, 51.000000)">
                <path d="M85.2694309,1.36581982 L81.479878,1.36581982 L81.479878,0.015009009 L90.5640244,0.015009009 L90.5640244,1.36581982 L86.7908537,1.36581982 L86.7908537,10.7410901 L85.2694309,10.7410901 L85.2694309,1.36581982" id="Fill-1" sketch:type="MSShapeGroup"></path>
                <path d="M95.2567073,0.015009009 L95.2567073,4.50163063 L101.042764,4.50163063 L101.042764,0.015009009 L102.565244,0.015009009 L102.565244,10.7410901 L101.042764,10.7410901 L101.042764,5.8846036 L95.2567073,5.8846036 L95.2567073,10.7410901 L93.7342276,10.7410901 L93.7342276,0.015009009 L95.2567073,0.015009009 Z" id="Fill-2" sketch:type="MSShapeGroup"></path>
                <path d="M106.559837,0.015009009 L113.218374,0.015009009 L113.218374,1.3819009 L108.081789,1.3819009 L108.081789,4.50163063 L111.95061,4.50163063 L111.95061,5.8846036 L108.081789,5.8846036 L108.081789,9.35811712 L113.59939,9.35811712 L113.59939,10.7410901 L106.559837,10.7410901 L106.559837,0.015009009" id="Fill-3" sketch:type="MSShapeGroup"></path>
                <path d="M19.6199593,44.6721712 L33.2012602,44.6721712 L33.2012602,60.1636126 C31.3691057,61.7717207 29.2288618,63.0142523 26.7805285,63.8890631 C24.3316667,64.7644099 21.5398374,65.2023514 18.4045122,65.2023514 C15.5154472,65.2023514 12.9355285,64.7467207 10.6626423,63.8354595 C8.39028455,62.9241982 6.46195122,61.6468243 4.87658537,60.0033378 C3.29121951,58.3598514 2.08317073,56.3936712 1.25613821,54.1064054 C0.42804878,51.8196757 0.0142682927,49.3008423 0.0142682927,46.5482973 C0.0142682927,43.8681171 0.454471545,41.3846622 1.3354065,39.0973964 C2.21528455,36.8106667 3.46666667,34.8182207 5.08743902,33.1205946 C6.70715447,31.4240405 8.62808943,30.091991 10.8476016,29.1271261 C13.0671138,28.1622613 15.5328862,27.6798288 18.2459756,27.6798288 C21.4515854,27.6798288 24.2613821,28.2785811 26.6753659,29.4755495 C29.0877642,30.6735901 31.087439,32.3433423 32.6728049,34.4874865 L27.282561,39.687036 C26.1548374,38.3292568 24.9129675,37.2212703 23.5569512,36.3636126 C22.2004065,35.505955 20.5357724,35.0771261 18.5630488,35.0771261 C16.9422764,35.0771261 15.4980081,35.3810586 14.2297154,35.9883874 C12.9614228,36.5962523 11.8865447,37.4179955 11.0061382,38.4541532 C10.1252033,39.4908468 9.45565041,40.7055045 8.99800813,42.0991982 C8.5398374,43.4928919 8.31101626,44.9761036 8.31101626,46.5482973 C8.31101626,48.2636126 8.57577236,49.8181171 9.10369919,51.2118108 C9.63268293,52.6055045 10.3719919,53.7938964 11.3232114,54.7764505 C12.2744309,55.7600766 13.3926423,56.5185676 14.6789024,57.0546036 C15.9646341,57.5906396 17.3650407,57.8586577 18.8806504,57.8586577 C20.2889837,57.8586577 21.5752439,57.6898063 22.7378455,57.3494234 C23.9009756,57.0101126 24.9388618,56.464964 25.8557317,55.7145135 L25.8557317,51.2118108 L19.6199593,51.2118108 L19.6199593,44.6721712" id="Fill-4" sketch:type="MSShapeGroup"></path>
                <path d="M59.2007317,65.255955 C56.5933333,65.255955 54.1719512,64.7735225 51.9344715,63.8086577 C49.6969919,62.8437928 47.7602033,61.522464 46.1214634,59.841991 C44.4837805,58.1625901 43.1969919,56.1701441 42.2642683,53.8651892 C41.3299593,51.5602342 40.8633333,49.0858919 40.8633333,46.4410901 C40.8633333,43.7609099 41.3299593,41.277455 42.2642683,38.9901892 C43.1969919,36.7039955 44.4837805,34.7201261 46.1214634,33.0401892 C47.7602033,31.3607883 49.6969919,30.0383874 51.9344715,29.0735225 C54.1719512,28.1086577 56.5933333,27.6262252 59.2007317,27.6262252 C61.8076016,27.6262252 64.2295122,28.1086577 66.4669919,29.0735225 C68.7044715,30.0383874 70.6423171,31.3607883 72.28,33.0401892 C73.9187398,34.7201261 75.2044715,36.7039955 76.1377236,38.9901892 C77.0709756,41.277455 77.5386585,43.7609099 77.5386585,46.4410901 C77.5386585,49.0858919 77.0709756,51.5602342 76.1377236,53.8651892 C75.2044715,56.1701441 73.9187398,58.1625901 72.28,59.841991 C70.6423171,61.522464 68.7044715,62.8437928 66.4669919,63.8086577 C64.2295122,64.7735225 61.8076016,65.255955 59.2007317,65.255955 L59.2007317,65.255955 Z M59.2007317,57.6442432 C60.7506911,57.6442432 62.1421138,57.3413829 63.3760569,56.732982 C64.6089431,56.1256532 65.6563415,55.3039099 66.5203659,54.2672162 C67.3833333,53.2310586 68.0439024,52.0340901 68.5020732,50.6757748 C68.959187,49.3179955 69.189065,47.8706982 69.189065,46.3338829 C69.189065,44.7976036 68.959187,43.3508423 68.5020732,41.991991 C68.0439024,40.6342117 67.3833333,39.4458198 66.5203659,38.4273514 C65.6563415,37.4088829 64.6089431,36.6048288 63.3760569,36.0151892 C62.1421138,35.4255495 60.7506911,35.1307297 59.2007317,35.1307297 C57.6502439,35.1307297 56.2498374,35.4255495 54.9995122,36.0151892 C53.7486585,36.6048288 52.691748,37.4088829 51.8287805,38.4273514 C50.9652846,39.4458198 50.3047154,40.6342117 49.8470732,41.991991 C49.3889024,43.3508423 49.1600813,44.7976036 49.1600813,46.3338829 C49.1600813,47.8706982 49.3889024,49.3179955 49.8470732,50.6757748 C50.3047154,52.0340901 50.9652846,53.2310586 51.8287805,54.2672162 C52.691748,55.3039099 53.7486585,56.1256532 54.9995122,56.732982 C56.2498374,57.3413829 57.6502439,57.6442432 59.2007317,57.6442432 L59.2007317,57.6442432 Z" id="Fill-5" sketch:type="MSShapeGroup"></path>
                <path d="M102.639756,65.255955 C100.031829,65.255955 97.6099187,64.7735225 95.3734959,63.8086577 C93.1354878,62.8437928 91.1981707,61.522464 89.5604878,59.841991 C87.921748,58.1625901 86.6349593,56.1701441 85.7022358,53.8651892 C84.7684553,51.5602342 84.3018293,49.0858919 84.3018293,46.4410901 C84.3018293,43.7609099 84.7684553,41.277455 85.7022358,38.9901892 C86.6349593,36.7039955 87.921748,34.7201261 89.5604878,33.0401892 C91.1981707,31.3607883 93.1354878,30.0383874 95.3734959,29.0735225 C97.6099187,28.1086577 100.031829,27.6262252 102.639756,27.6262252 C105.246098,27.6262252 107.668008,28.1086577 109.906016,29.0735225 C112.142439,30.0383874 114.080285,31.3607883 115.719024,33.0401892 C117.356707,34.7201261 118.642439,36.7039955 119.57622,38.9901892 C120.509472,41.277455 120.976626,43.7609099 120.976626,46.4410901 C120.976626,49.0858919 120.509472,51.5602342 119.57622,53.8651892 C118.642439,56.1701441 117.356707,58.1625901 115.719024,59.841991 C114.080285,61.522464 112.142439,62.8437928 109.906016,63.8086577 C107.668008,64.7735225 105.246098,65.255955 102.639756,65.255955 L102.639756,65.255955 Z M102.639756,57.6442432 C104.189187,57.6442432 105.58061,57.3413829 106.814024,56.732982 C108.046911,56.1256532 109.094309,55.3039099 109.958333,54.2672162 C110.821301,53.2310586 111.48187,52.0340901 111.940041,50.6757748 C112.397154,49.3179955 112.627033,47.8706982 112.627033,46.3338829 C112.627033,44.7976036 112.397154,43.3508423 111.940041,41.991991 C111.48187,40.6342117 110.821301,39.4458198 109.958333,38.4273514 C109.094309,37.4088829 108.046911,36.6048288 106.814024,36.0151892 C105.58061,35.4255495 104.189187,35.1307297 102.639756,35.1307297 C101.08874,35.1307297 99.6883333,35.4255495 98.4380081,36.0151892 C97.1871545,36.6048288 96.1302439,37.4088829 95.2672764,38.4273514 C94.4037805,39.4458198 93.7432114,40.6342117 93.2855691,41.991991 C92.8273984,43.3508423 92.5991057,44.7976036 92.5991057,46.3338829 C92.5991057,47.8706982 92.8273984,49.3179955 93.2855691,50.6757748 C93.7432114,52.0340901 94.4037805,53.2310586 95.2672764,54.2672162 C96.1302439,55.3039099 97.1871545,56.1256532 98.4380081,56.732982 C99.6883333,57.3413829 101.08874,57.6442432 102.639756,57.6442432 L102.639756,57.6442432 Z" id="Fill-6" sketch:type="MSShapeGroup"></path>
                <path d="M129.114309,28.5910901 L142.431382,28.5910901 C145.143943,28.5910901 147.654106,28.9486261 149.96187,29.6631622 C152.269106,30.3782342 154.259797,31.4679955 155.933415,32.932982 C157.605976,34.3985045 158.910203,36.2746306 159.843984,38.5613604 C160.776707,40.8486261 161.24439,43.5464955 161.24439,46.6555045 C161.24439,49.6219279 160.76878,52.2034775 159.817561,54.4012252 C158.866341,56.598973 157.553659,58.4397207 155.880569,59.9223964 C154.206951,61.4061441 152.21626,62.5135946 149.909024,63.2458198 C147.60126,63.9785811 145.091098,64.3446937 142.378537,64.3446937 L129.114309,64.3446937 L129.114309,28.5910901 L129.114309,28.5910901 Z M141.955772,57.1618108 C145.478455,57.1618108 148.191545,56.2237477 150.093984,54.3476216 C151.996423,52.4714955 152.947642,49.8899459 152.947642,46.6019009 C152.947642,44.9589505 152.727276,43.4660901 152.287073,42.126 C151.846341,40.7859099 151.177317,39.642545 150.278943,38.6953694 C149.380569,37.7487297 148.24439,37.0159685 146.870407,36.4976216 C145.496423,35.9803468 143.858211,35.7203694 141.955772,35.7203694 L137.093984,35.7203694 L137.093984,57.1618108 L141.955772,57.1618108 L141.955772,57.1618108 Z" id="Fill-7" sketch:type="MSShapeGroup"></path>
                <path d="M172.288577,53.6775766 C172.746748,54.1782342 173.283659,54.6880045 173.900366,55.2052793 C174.516545,55.7236261 175.203537,56.1969459 175.96187,56.6257748 C176.718618,57.0546036 177.547236,57.403027 178.44561,57.671045 C179.343984,57.9390631 180.303659,58.0730721 181.325691,58.0730721 C181.924431,58.0730721 182.523171,57.9840901 183.121911,57.8050541 C183.72065,57.6265541 184.267073,57.3681847 184.76065,57.0278018 C185.253699,56.688491 185.650041,56.2773514 185.949675,55.7949189 C186.24878,55.3124865 186.398862,54.7678739 186.398862,54.160009 C186.398862,52.8381441 185.764187,51.8105631 184.496423,51.0778018 C183.22813,50.3455766 181.22,49.6219279 178.472033,48.9068559 C177.132927,48.5852342 175.890528,48.1215631 174.746423,47.5131622 C173.60126,46.9058333 172.614634,46.1730721 171.786545,45.3154144 C170.958984,44.4577568 170.315325,43.4752027 169.858211,42.3672162 C169.400041,41.2603018 169.17122,40.0268829 169.17122,38.6685676 C169.17122,37.1676667 169.435447,35.7562838 169.963902,34.4338829 C170.492358,33.112018 171.293496,31.9413153 172.368374,30.9228468 C173.442195,29.9043784 174.780772,29.1003243 176.384106,28.5106847 C177.987439,27.921045 179.880894,27.6262252 182.065,27.6262252 C183.862276,27.6262252 185.447642,27.8138378 186.821098,28.1890631 C188.19561,28.5642883 189.366138,29.0118784 190.335854,29.5291532 C191.304512,30.0475 192.097195,30.583536 192.713902,31.1372613 C193.329553,31.6920586 193.797236,32.1289279 194.11378,32.4505495 L189.516748,37.5964955 C189.128862,37.2748739 188.679146,36.9264505 188.168659,36.5512252 C187.657642,36.176 187.085325,35.8275766 186.451179,35.505955 C185.817561,35.1843333 185.121585,34.9163153 184.364309,34.7019009 C183.606504,34.4874865 182.805366,34.3802793 181.959309,34.3802793 C181.395976,34.3802793 180.840569,34.4697973 180.295203,34.6482973 C179.74878,34.8278694 179.255203,35.0685495 178.815528,35.3719459 C178.374268,35.6758784 178.022846,36.0339505 177.758618,36.444018 C177.49439,36.8551577 177.362276,37.2930991 177.362276,37.7573063 C177.362276,38.9725 177.995894,39.9550541 179.264715,40.7055045 C180.533008,41.455955 182.276911,42.081509 184.496423,42.5816306 C185.799065,42.9032523 187.07687,43.3411937 188.327724,43.8949189 C189.57752,44.4491802 190.69626,45.1728288 191.683415,46.0658649 C192.668984,46.9594369 193.461667,48.0583108 194.061463,49.3624865 C194.659675,50.6677342 194.959837,52.2490405 194.959837,54.1064054 C194.959837,55.7145135 194.607358,57.1977252 193.902927,58.5555045 C193.197439,59.9143559 192.237764,61.0936351 191.022846,62.0933423 C189.807398,63.0941216 188.380569,63.8713739 186.742358,64.4256351 C185.103618,64.9788243 183.333821,65.255955 181.430854,65.255955 C179.668984,65.255955 178.066179,65.0860315 176.622439,64.7467207 C175.177114,64.4063378 173.873943,63.9608919 172.711341,63.4066306 C171.549268,62.8529054 170.500813,62.2187748 169.567561,61.5037027 C168.633252,60.7891667 167.831585,60.0564054 167.162561,59.305955 L172.288577,53.6775766" id="Fill-8" sketch:type="MSShapeGroup"></path>
                <path d="M42.8450407,82.1946937 L50.8252439,82.1946937 L50.8252439,110.765414 L67.682439,110.765414 L67.682439,117.948297 L42.8450407,117.948297 L42.8450407,82.1946937" id="Fill-9" sketch:type="MSShapeGroup"></path>
                <path d="M75.0279675,82.1946937 L83.0076423,82.1946937 L83.0076423,117.948297 L75.0279675,117.948297 L75.0279675,82.1946937 Z" id="Fill-10" sketch:type="MSShapeGroup"></path>
                <path d="M95.1610569,107.28118 C95.6186992,107.781838 96.1561382,108.291608 96.7728455,108.808883 C97.3890244,109.32723 98.0760163,109.80055 98.8338211,110.229378 C99.5910976,110.658207 100.419187,111.006631 101.318089,111.274649 C102.216463,111.542667 103.17561,111.676676 104.198171,111.676676 C104.796911,111.676676 105.395122,111.58823 105.99439,111.408658 C106.59313,111.230158 107.139024,110.971252 107.63313,110.631405 C108.12565,110.292095 108.521992,109.880955 108.822154,109.398523 C109.120732,108.916626 109.270813,108.372014 109.270813,107.763613 C109.270813,106.441748 108.636667,105.414167 107.368902,104.681405 C106.100081,103.949716 104.09248,103.225532 101.343984,102.510459 C100.004878,102.188838 98.7630081,101.725167 97.6189024,101.116766 C96.4737398,100.509437 95.4865854,99.7766757 94.6590244,98.919018 C93.8314634,98.0618964 93.1878049,97.0788063 92.7306911,95.9708198 C92.2719919,94.8639054 92.0436992,93.6310225 92.0436992,92.2721712 C92.0436992,90.7712703 92.3079268,89.3598874 92.8363821,88.0374865 C93.3648374,86.7161577 94.1654472,85.5449189 95.2408537,84.5269865 C96.3146748,83.507982 97.653252,82.7039279 99.2565854,82.1148243 C100.85939,81.5246486 102.752846,81.2298288 104.93748,81.2298288 C106.734756,81.2298288 108.320122,81.4174414 109.693577,81.7926667 C111.068089,82.1678919 112.238618,82.6149459 113.208333,83.1327568 C114.176992,83.6516396 114.969675,84.1876757 115.586382,84.7408649 C116.202033,85.2951261 116.669187,85.7330676 116.98626,86.0541532 L112.389228,91.2000991 C112.000813,90.8784775 111.551626,90.5300541 111.041138,90.1553649 C110.530122,89.7796036 109.957805,89.4311802 109.323659,89.1095586 C108.690041,88.7879369 107.993537,88.5199189 107.236789,88.3055045 C106.478455,88.0910901 105.677846,87.9838829 104.831789,87.9838829 C104.268455,87.9838829 103.713049,88.0739369 103.167683,88.2519009 C102.620732,88.431473 102.127683,88.6726892 101.688008,88.9755495 C101.246748,89.280018 100.895325,89.6375541 100.631098,90.0476216 C100.36687,90.4587613 100.234756,90.8967027 100.234756,91.3614459 C100.234756,92.5761036 100.868374,93.5586577 102.136667,94.3096441 C103.405488,95.0595586 105.14939,95.6851126 107.368902,96.1857703 C108.671545,96.5068559 109.94935,96.9447973 111.200203,97.4985225 C112.45,98.0533198 113.56874,98.7769685 114.555366,99.6700045 C115.541463,100.563041 116.334146,101.661914 116.933415,102.96609 C117.532154,104.271338 117.832317,105.852644 117.832317,107.710545 C117.832317,109.318653 117.479837,110.801329 116.775407,112.159108 C116.069919,113.517959 115.110244,114.697239 113.894797,115.696946 C112.679878,116.697725 111.25252,117.474977 109.614837,118.029239 C107.976098,118.582428 106.206301,118.859559 104.303333,118.859559 C102.541463,118.859559 100.938659,118.689635 99.4943902,118.350324 C98.0495935,118.009941 96.7464228,117.564495 95.5838211,117.010234 C94.421748,116.456509 93.3727642,115.822378 92.4400407,115.107306 C91.5057317,114.39277 90.704065,113.660009 90.0350407,112.909559 L95.1610569,107.28118" id="Fill-11" sketch:type="MSShapeGroup"></path>
                <path d="M135.482195,89.323973 L124.067033,89.323973 L124.067033,82.1946937 L154.875976,82.1946937 L154.875976,89.323973 L143.514187,89.323973 L143.514187,117.948297 L135.482195,117.948297 L135.482195,89.323973" id="Fill-12" sketch:type="MSShapeGroup"></path>
            </g>
        </g>
    </g>
</svg>